<svg xmlns="http://www.w3.org/2000/svg" width="256" height="256" viewBox="0 0 256 256">
    <path fill="none" d="M0 0h256v256H0z"/>
    <rect width="244" height="244" x="6" y="6" ry="20" fill="#fff"/>
    <g fill="#37474f">
        <path d="M20 128c1.06-53.464 27.196-85.429 61.868-90.94C120 31 142.94 59.824 145.768 66.304 150 76 145 76 140.354 71.971 127.87 61.148 114.667 48.655 84.293 54.76 55 60.646 44.895 108.071 44.944 128.071 45 151 43.232 196 89.423 203.525c38.382 6.253 55.577-37.525 60.975-49.85 2.837-6.476 7.92-3.18 6.723 4.214C155 171 139.96 226.053 84.597 220.293 38.549 215.502 18.939 181.464 20 128z"/>
        <path d="M160 91c-20 25-40 40-45 45s-3.118 7.756 3.232 4.646c2.24-1.096 25.898-15.534 42.735-30.957 16.838-15.424 28.976-30.772 29.387-32.982 0 0-4.293 41.01-4.293 76.01 0 35 3.232 55.758 3.232 55.758s-30.414 4.178-36.768 3.889c-6.354-.289-9.943 8.176 0 9.243 13.182 1.414 27.128 1.202 45.303.757 23.843-.583 30.808-.404 41.818-1.111 4.99-.32 4.578-8.424-1.06-8.889-5.638-.465-33.586-4.243-33.586-4.243s2.984-51.042 2.778-78.839c-.203-27.453-1.364-92.928-6.364-97.928s-11.768 11.01-11.768 11.01S180 66 160 91z"/>
    </g>
</svg>
