<?xml version="1.0" standalone="no"?>
<!DOCTYPE svg PUBLIC "-//W3C//DTD SVG 20010904//EN"
 "http://www.w3.org/TR/2001/REC-SVG-20010904/DTD/svg10.dtd">
<svg version="1.0" xmlns="http://www.w3.org/2000/svg"
 width="700.000000pt" height="700.000000pt" viewBox="0 0 700.000000 700.000000"
 preserveAspectRatio="xMidYMid meet">
<metadata>
Created by potrace 1.11, written by Peter Selinger 2001-2013
</metadata>
<g transform="translate(0.000000,700.000000) scale(0.100000,-0.100000)"
fill="#000000" stroke="none">
<path d="M5402 6153 c-57 -28 -119 -119 -218 -323 -193 -398 -300 -590 -479
-860 -353 -534 -731 -955 -1364 -1515 -223 -198 -271 -250 -271 -296 0 -57 73
-50 198 17 181 99 634 412 877 608 339 273 801 744 999 1020 31 43 56 72 56
64 0 -7 -9 -114 -20 -238 -97 -1117 -116 -2062 -54 -2835 16 -209 42 -463 49
-482 2 -7 3 -13 2 -13 -1 0 -85 -11 -187 -24 -257 -34 -623 -73 -760 -82 -164
-10 -225 -46 -225 -134 0 -44 15 -65 67 -91 98 -50 502 -65 1318 -50 897 16
1178 27 1208 47 48 32 62 112 28 167 -28 47 -63 55 -367 92 -405 50 -639 82
-646 89 -4 4 3 210 15 459 45 913 47 1000 46 1727 -1 1381 -62 2440 -150 2612
-16 30 -51 58 -74 58 -8 0 -30 -8 -48 -17z"/>
<path d="M2335 5999 c-604 -63 -1127 -431 -1440 -1014 -163 -305 -262 -638
-322 -1090 -25 -187 -25 -833 0 -1020 66 -498 182 -846 383 -1148 91 -136 302
-349 434 -437 247 -164 557 -271 899 -311 151 -17 469 -7 586 19 286 64 513
178 726 365 309 271 570 746 674 1225 35 161 31 228 -17 279 -53 56 -107 14
-173 -134 -192 -432 -369 -714 -580 -926 -165 -164 -326 -268 -515 -331 -135
-45 -253 -60 -405 -53 -355 18 -683 155 -910 382 -233 232 -364 547 -422 1020
-26 207 -26 840 0 1010 113 753 400 1326 778 1557 96 58 197 96 319 118 418
75 768 26 1059 -149 96 -58 236 -163 361 -271 110 -96 184 -136 223 -121 46
18 47 71 2 191 -31 80 -117 197 -232 314 -387 391 -901 580 -1428 525z"/>
</g>
</svg>
